<svg width="106" height="40" viewBox="0 0 106 40" fill="none" xmlns="http://www.w3.org/2000/svg">
<path d="M44.1125 35.109C43.3523 34.2838 39.1422 29.5572 38.911 28.9121C38.7623 28.497 38.8983 27.4511 39.7184 26.7538C40.5383 26.0565 41.4266 25.8835 41.7128 26.0591C42.4745 26.5269 45.9726 29.8006 46.2155 30.0549C46.4584 30.3092 46.6461 30.3221 46.8039 29.9802C47.9766 27.4395 50.4547 23.2063 51.9732 20.793C53.1697 18.8916 55.7039 15.093 60.183 11.7588C62.0707 10.3535 64.2819 9.95614 65.0772 9.96905C65.7033 9.97918 65.9493 10.3376 65.4903 10.6701C64.3928 11.465 62.7607 13.1192 61.3899 14.841C59.2385 17.5433 57.3892 20.45 55.657 23.431C54.0431 26.2083 50.1153 33.1817 49.0675 34.9357C48.4677 35.8828 45.2943 36.2908 44.1125 35.109Z" fill="#798291"/>
<path d="M56.9712 24.1944C56.5718 24.8815 56.0232 25.8392 55.415 26.9051L60.6429 25.2645L58.8015 21.1641C58.2075 22.1063 57.6001 23.1121 56.9712 24.1944Z" fill="#D3D8E1"/>
<path d="M16.6574 15.8701H15.9219V20.0005H16.6009C17.5627 20.0005 18.3549 19.8308 18.864 19.4914C19.3732 19.2084 19.6561 18.6426 19.6561 17.907C19.6561 16.5492 18.6376 15.8701 16.6574 15.8701Z" fill="#D3D8E1"/>
<path d="M37.4811 29.4235C37.3539 29.0684 37.3159 28.6892 37.3443 28.3083C37.1662 28.3136 36.9859 28.3174 36.7997 28.3174C35.1589 28.3174 33.6879 28.1477 32.4432 27.7516C31.1418 27.3554 30.0669 26.8463 29.1616 26.1673C28.2564 25.4882 27.5773 24.6397 27.1247 23.6777C26.6721 22.6593 26.4456 21.5843 26.4456 20.3961C26.4456 19.208 26.6721 18.133 27.1812 17.1146C27.6903 16.1526 28.3693 15.3041 29.2746 14.5685C30.1798 13.8895 31.2548 13.3239 32.4997 12.9277C33.7443 12.5316 35.1025 12.3619 36.5733 12.3619C37.705 12.3619 38.7799 12.4184 39.7417 12.5881C40.7034 12.8145 40.7034 12.8145 41.4392 13.0972V17.2275C40.8733 16.8881 40.1943 16.6052 39.459 16.4355C38.7234 16.2091 37.9314 16.0961 37.1391 16.0961C35.7813 16.0961 34.7063 16.4922 33.8576 17.171C33.0088 17.9066 32.6129 18.9251 32.6129 20.3394C32.6129 21.0185 32.7261 21.6408 33.009 22.2066C33.292 22.7157 33.6314 23.1684 34.084 23.508C34.5366 23.8474 35.0457 24.1303 35.6683 24.3C36.2906 24.4697 36.9132 24.583 37.592 24.583C38.2708 24.583 39.0066 24.5265 39.6854 24.3565C40.3642 24.1866 41.1 24.0171 41.8356 23.6775V24.5148C42.0808 24.5589 42.3074 24.6389 42.5088 24.7625C42.852 24.9733 43.5288 25.5396 44.2686 26.1918V12.5878H50.2095V20.751C50.3794 20.4749 50.5398 20.2171 50.6877 19.982C51.3219 18.9742 52.8776 16.5034 55.5085 13.8287L49.2981 0L0 2.74866L13.6843 40L39.327 31.9528C37.6921 30.0094 37.5758 29.6874 37.4811 29.4235ZM44.721 5.23264C45.4001 4.61032 46.2486 4.3274 47.267 4.3274C48.2855 4.3274 49.1343 4.61032 49.8131 5.23264C50.4921 5.79849 50.8315 6.64725 50.8315 7.7222C50.8315 8.74066 50.4921 9.58942 49.8131 10.155C49.134 10.7206 48.2855 11.0603 47.267 11.0603C46.2486 11.0603 45.3998 10.7773 44.721 10.155C44.042 9.58917 43.7025 8.74041 43.7025 7.7222C43.7028 6.64725 44.0422 5.85497 44.721 5.23264ZM24.6919 20.2829C24.2957 20.962 23.7302 21.5843 22.9946 22.0369C22.2591 22.4896 21.3538 22.829 20.3354 23.0554C19.3169 23.2818 18.1852 23.3948 16.8841 23.3948H15.9788V28.0342H10.0942V12.5881H16.997C19.5998 12.5881 21.6365 13.0407 23.1076 13.8895C24.5787 14.7382 25.3142 16.0961 25.3142 17.8501C25.3142 18.7551 25.088 19.5474 24.6919 20.2829Z" fill="#D3D8E1"/>
<path d="M69.7793 19.6339V6.54688H74.5231C78.4546 6.54688 81.0941 9.0572 81.0941 13.0996C81.0941 17.1421 78.4546 19.6339 74.5044 19.6339H69.7793ZM74.3937 16.8835C76.4055 16.8835 78.0486 15.7207 78.0486 13.0996C78.0486 10.4786 76.4058 9.29706 74.3937 9.29706H72.6956V16.8835H74.3937Z" fill="#798291"/>
<path d="M89.5459 10.4966C89.4537 9.88747 88.9552 8.85381 87.3678 8.85381C86.2787 8.85381 85.5774 9.53667 85.5774 10.2565C85.5774 10.8844 85.9649 11.3456 86.8696 11.5118L88.6231 11.8441C91.1152 12.3056 92.407 13.9114 92.407 15.7756C92.407 17.8247 90.6905 19.9103 87.571 19.9103C83.953 19.9103 82.4024 17.5661 82.2178 15.7204L84.8943 15.0743C85.0052 16.2738 85.8172 17.3262 87.6077 17.3262C88.7523 17.3262 89.4534 16.7723 89.4534 15.9603C89.4534 15.2956 88.9182 14.8157 88.0507 14.6495L86.2602 14.3172C84.0452 13.8927 82.6978 12.416 82.6978 10.4779C82.6978 8.00429 84.876 6.26953 87.3863 6.26953C90.6535 6.26953 91.8903 8.22617 92.1671 9.75804L89.5459 10.4966Z" fill="#798291"/>
<path d="M100.787 10.4966C100.695 9.88747 100.196 8.85381 98.6091 8.85381C97.5199 8.85381 96.8186 9.53667 96.8186 10.2565C96.8186 10.8844 97.2061 11.3456 98.1108 11.5118L99.8643 11.8441C102.356 12.3056 103.648 13.9114 103.648 15.7756C103.648 17.8247 101.932 19.9103 98.8119 19.9103C95.1943 19.9103 93.6439 17.5661 93.459 15.7204L96.1355 15.0743C96.2464 16.2738 97.0584 17.3262 98.8489 17.3262C99.9933 17.3262 100.695 16.7723 100.695 15.9603C100.695 15.2956 100.159 14.8157 99.2919 14.6495L97.5014 14.3172C95.2864 13.8927 93.9392 12.416 93.9392 10.4779C93.9392 8.00429 96.1172 6.26953 98.6275 6.26953C101.895 6.26953 103.131 8.22617 103.408 9.75804L100.787 10.4966Z" fill="#798291"/>
<path d="M69.4922 25.5615C69.4922 24.2938 70.4557 23.4336 71.5912 23.4336C72.8128 23.4336 73.352 24.2195 73.484 24.8044L72.6294 25.0739C72.5663 24.793 72.3082 24.3168 71.5912 24.3168C71.0466 24.3168 70.4329 24.7069 70.4329 25.5615C70.4329 26.3244 70.9949 26.7658 71.6028 26.7658C72.3082 26.7658 72.5894 26.2957 72.6697 26.0029L73.5357 26.2496C73.4037 26.8119 72.8647 27.6721 71.6028 27.6721C70.4329 27.6721 69.4922 26.8289 69.4922 25.5615Z" fill="#798291"/>
<path d="M76.001 23.4336C77.1423 23.4336 78.1116 24.2651 78.1116 25.5559C78.1116 26.8405 77.1423 27.6721 76.001 27.6721C74.8538 27.6721 73.8848 26.8405 73.8848 25.5559C73.8848 24.2651 74.8538 23.4336 76.001 23.4336ZM76.001 26.7775C76.563 26.7775 77.1709 26.3988 77.1709 25.5498C77.1709 24.701 76.563 24.3168 76.001 24.3168C75.4331 24.3168 74.8252 24.7013 74.8252 25.5498C74.8255 26.3988 75.4331 26.7775 76.001 26.7775Z" fill="#798291"/>
<path d="M82.475 27.5868V24.8913L81.414 27.587H80.68L79.6192 24.9257V27.587H78.7588V23.5205H79.9404L81.0589 26.2679L82.1196 23.5205H83.3643V27.587L82.475 27.5868Z" fill="#798291"/>
<path d="M85.1514 26.1243V27.5868H84.2451V23.5205H85.7767C86.6025 23.5205 87.1703 24.0653 87.1703 24.8227C87.1703 25.5911 86.6025 26.1245 85.7767 26.1245L85.1514 26.1243ZM85.6848 25.3444C86.029 25.3444 86.2641 25.1436 86.2641 24.8282C86.2641 24.5012 86.029 24.3062 85.6848 24.3062H85.1572V25.3444H85.6848Z" fill="#798291"/>
<path d="M87.7314 27.5868V23.5205H88.6377V26.721H90.3927V27.587L87.7314 27.5868Z" fill="#798291"/>
<path d="M90.9766 27.5868V23.5205H91.8942V27.587L90.9766 27.5868Z" fill="#798291"/>
<path d="M95.2018 26.7611H93.6304L93.3378 27.587H92.3857L93.9171 23.5205H94.9667L96.4811 27.587H95.4946L95.2018 26.7611ZM93.9283 25.9351H94.9151L94.4275 24.5299L93.9283 25.9351Z" fill="#798291"/>
<path d="M99.5559 27.5868L97.8812 24.9141V27.5868H96.9805V23.5205H98.0818L99.6073 25.9926V23.5205H100.514V27.587L99.5559 27.5868Z" fill="#798291"/>
<path d="M103.213 24.3865V27.587H102.307V24.3865H101.057V23.5205H104.469V24.3865H103.213Z" fill="#798291"/>
</svg>
