<svg xmlns:mydata="http://www.w3.org/2000/svg" mydata:contrastcolor="cbafda"
    mydata:template="Default" mydata:presentation="2.5" mydata:layouttype="undefined"
    mydata:specialfontid="undefined" mydata:id1="769" mydata:id2="769"
    mydata:companyname="favoriteslots" mydata:companytagline="" version="1.1"
    xmlns="http://www.w3.org/2000/svg" xmlns:xlink="http://www.w3.org/1999/xlink"
    viewBox="64.99999999999999 203.7143800429898 420 62.571239914020424">
    <g fill="#5c068c" fill-rule="none" stroke="none" stroke-width="1" stroke-linecap="butt"
        stroke-linejoin="miter" stroke-miterlimit="10" stroke-dasharray="" stroke-dashoffset="0"
        font-family="none" font-weight="none" font-size="none" text-anchor="none"
        style="mix-blend-mode: normal">
        <g
            data-paper-data="{&quot;isGlobalGroup&quot;:true,&quot;bounds&quot;:{&quot;x&quot;:64.99999999999999,&quot;y&quot;:203.7143800429898,&quot;width&quot;:420,&quot;height&quot;:62.571239914020424}}">
            <g data-paper-data="{&quot;isPrimaryText&quot;:true}" fill-rule="nonzero">
                <path
                    d="M78.35194,252.97024h7.16561c0.02063,0 0.03737,-0.01674 0.03737,-0.03737v-14.29385h16.21546c0.02063,0 0.03737,-0.01674 0.03737,-0.03737v-7.16561c0,-0.02063 -0.01674,-0.03737 -0.03737,-0.03737h-16.21546v-7.09086h23.37838c0.02063,0 0.03737,-0.01674 0.03737,-0.03737v-7.16561c0,-0.02063 -0.01674,-0.03737 -0.03737,-0.03737h-30.58136c-0.02063,0 -0.03737,0.01674 -0.03737,0.03737v35.82805c0,0.02063 0.01674,0.03737 0.03737,0.03737z"
                    data-paper-data="{&quot;glyphName&quot;:&quot;F&quot;,&quot;glyphIndex&quot;:0,&quot;firstGlyphOfWord&quot;:true,&quot;word&quot;:1}"
                    style="fill: rgb(255, 255, 255);"></path>
                <path
                    d="M104.83653,252.97114h7.52261c0.01644,0 0.0308,-0.01047 0.03558,-0.02601l1.5697,-4.87833h12.32469l1.5697,4.87833c0.00508,0.01555 0.01914,0.02601 0.03558,0.02601h7.52261c0.01196,0 0.02302,-0.00568 0.0302,-0.01525c0.00718,-0.00957 0.00897,-0.02212 0.00568,-0.03349l-11.52878,-35.82805c-0.00508,-0.01555 -0.01914,-0.02601 -0.03558,-0.02601h-7.52261c-0.01644,0 -0.0308,0.01047 -0.03558,0.02601l-11.52938,35.82805c-0.00359,0.01136 -0.00179,0.02392 0.00538,0.03349c0.00718,0.00957 0.01824,0.01525 0.0302,0.01525zM116.29475,240.82524l3.83216,-11.9097l3.83216,11.9097z"
                    data-paper-data="{&quot;glyphName&quot;:&quot;A&quot;,&quot;glyphIndex&quot;:1,&quot;word&quot;:1}"
                    style="fill: rgb(255, 255, 255);"></path>
                <path
                    d="M140.28851,252.97114h7.52261c0.01644,0 0.0308,-0.01047 0.03558,-0.02601l11.52908,-35.82805c0.00359,-0.01136 0.00179,-0.02392 -0.00568,-0.03349c-0.00688,-0.00957 -0.01824,-0.01525 -0.0302,-0.01525h-7.52261c-0.01644,0 -0.0308,0.01047 -0.03558,0.02601l-7.7319,24.02988l-7.7322,-24.02988c-0.00508,-0.01555 -0.01914,-0.02601 -0.03558,-0.02601h-7.52261c-0.01196,0 -0.02302,0.00568 -0.0302,0.01525c-0.00718,0.00957 -0.00897,0.02212 -0.00568,0.03349l11.52938,35.82805c0.00478,0.01555 0.01914,0.02601 0.03558,0.02601z"
                    data-paper-data="{&quot;glyphName&quot;:&quot;V&quot;,&quot;glyphIndex&quot;:2,&quot;word&quot;:1}"
                    style="fill: rgb(255, 255, 255);"></path>
                <path
                    d="M170.05412,245.7661c5.93635,0 10.74871,-4.81236 10.74871,-10.74871c0,-5.93635 -4.81236,-10.74871 -10.74871,-10.74871c-5.93635,0 -10.74871,4.81236 -10.74871,10.74871c0,5.93635 4.81236,10.74871 10.74871,10.74871zM212.31376,242.77799c3.92694,-2.606 6.27103,-6.97097 6.27103,-11.68545c0,-7.73459 -6.29256,-14.02715 -14.02715,-14.02715h-16.59099c-0.02063,0 -0.03737,0.01674 -0.03737,0.03737v17.91462c0,9.85802 -8.01863,17.87815 -17.87516,17.87815c-0.02063,0 -0.03737,0.01674 -0.03737,0.03737c0,0.02063 0.01674,0.03737 0.03737,0.03737h17.91253c0.00179,0 0.00299,-0.00179 0.00508,-0.00209h7.15873c0.02063,0 0.03737,-0.01674 0.03737,-0.03737v-7.81113h9.3898c0.23082,0 0.46104,-0.00628 0.68529,-0.01734l4.85322,7.84791c0.00688,0.01106 0.01884,0.01794 0.03169,0.01794h8.41958c0.01345,0 0.02601,-0.00718 0.03259,-0.01914c0.00658,-0.01166 0.00628,-0.02631 -0.0009,-0.03767zM208.47083,236.63852c-1.14274,0.81296 -2.49597,1.2426 -3.91319,1.2426h-9.3898v-13.57717h9.3898c3.74336,0 6.78858,3.04552 6.78858,6.78858c0,2.20147 -1.07487,4.27467 -2.87539,5.54598z"
                    data-paper-data="{&quot;glyphName&quot;:&quot;&quot;,&quot;glyphIndex&quot;:3,&quot;word&quot;:1}"
                    style="fill: rgb(255, 255, 255);"></path>
                <path
                    d="M223.12696,252.97024h7.16292c0.02063,0 0.03737,-0.01674 0.03737,-0.03737v-35.82805c0,-0.02063 -0.01674,-0.03737 -0.03737,-0.03737h-7.16292c-0.02063,0 -0.03737,0.01674 -0.03737,0.03737v35.82805c0,0.02063 0.01674,0.03737 0.03737,0.03737z"
                    data-paper-data="{&quot;glyphName&quot;:&quot;I&quot;,&quot;glyphIndex&quot;:4,&quot;word&quot;:1}"
                    style="fill: rgb(255, 255, 255);"></path>
                <path
                    d="M234.9069,224.3078h11.6702v28.62507c0,0.02063 0.01674,0.03737 0.03737,0.03737h7.16561c0.02063,0 0.03737,-0.01674 0.03737,-0.03737v-28.62507h11.6705c0.02063,0 0.03737,-0.01674 0.03737,-0.03737v-7.16561c0,-0.02063 -0.01674,-0.03737 -0.03737,-0.03737h-30.58107c-0.02063,0 -0.03737,0.01674 -0.03737,0.03737v7.16561c0,0.02063 0.01644,0.03737 0.03737,0.03737z"
                    data-paper-data="{&quot;glyphName&quot;:&quot;T&quot;,&quot;glyphIndex&quot;:5,&quot;word&quot;:1}"
                    style="fill: rgb(255, 255, 255);"></path>
                <path
                    d="M270.10156,252.97024h30.58166c0.02063,0 0.03737,-0.01674 0.03737,-0.03737v-7.16561c0,-0.02063 -0.01674,-0.03737 -0.03737,-0.03737h-23.37838v-7.09086h16.21546c0.02063,0 0.03737,-0.01674 0.03737,-0.03737v-7.16561c0,-0.02063 -0.01674,-0.03737 -0.03737,-0.03737h-16.21546v-7.09086h23.37838c0.02063,0 0.03737,-0.01674 0.03737,-0.03737v-7.16561c0,-0.02063 -0.01674,-0.03737 -0.03737,-0.03737h-30.58166c-0.02063,0 -0.03737,0.01674 -0.03737,0.03737v35.82805c0,0.02063 0.01674,0.03737 0.03737,0.03737z"
                    data-paper-data="{&quot;glyphName&quot;:&quot;E&quot;,&quot;glyphIndex&quot;:6,&quot;word&quot;:1}"
                    style="fill: rgb(255, 255, 255);"></path>
                <path
                    d="M323.34937,245.73287h-9.09859c-1.9563,0 -3.54753,-1.59153 -3.54753,-3.54753c0,-0.02063 -0.01674,-0.03737 -0.03737,-0.03737h-7.16292c-0.02063,0 -0.03737,0.01674 -0.03737,0.03737c0,5.94692 4.83827,10.78519 10.78519,10.78519h9.09859c5.94722,0 10.78519,-4.83827 10.78519,-10.78519c0,-5.94692 -4.83827,-10.78519 -10.78519,-10.78519h-9.09859c-1.9563,0 -3.54753,-1.59153 -3.54753,-3.54753c0,-1.956 1.59123,-3.54753 3.54753,-3.54753h9.09859c1.9563,0 3.54753,1.59153 3.54753,3.54753c0,0.02063 0.01674,0.03737 0.03737,0.03737h7.16292c0.02063,0 0.03737,-0.01674 0.03737,-0.03737c0,-5.94692 -4.83827,-10.78519 -10.78519,-10.78519h-9.09859c-5.94722,0 -10.78519,4.83827 -10.78519,10.78519c0,5.94692 4.83827,10.78519 10.78519,10.78519h9.09859c1.9563,0 3.54753,1.59153 3.54753,3.54753c0,1.956 -1.59123,3.54753 -3.54753,3.54753z"
                    data-paper-data="{&quot;glyphName&quot;:&quot;S&quot;,&quot;glyphIndex&quot;:7,&quot;word&quot;:1}"
                    style="fill: rgb(255, 255, 255);"></path>
                <path
                    d="M338.69762,252.97024h30.58107c0.02063,0 0.03737,-0.01674 0.03737,-0.03737v-7.16561c0,-0.02063 -0.01674,-0.03737 -0.03737,-0.03737h-23.37808v-28.62507c0,-0.02063 -0.01674,-0.03737 -0.03737,-0.03737h-7.16561c-0.02063,0 -0.03737,0.01674 -0.03737,0.03737v35.82805c0,0.02063 0.01674,0.03737 0.03737,0.03737z"
                    data-paper-data="{&quot;glyphName&quot;:&quot;L&quot;,&quot;glyphIndex&quot;:8,&quot;word&quot;:1}"
                    style="fill: rgb(255, 255, 255);"></path>
                <path
                    d="M388.2213,252.97114c9.89779,0 17.94991,-8.05361 17.94991,-17.95289c0,-9.89779 -8.05242,-17.94991 -17.94991,-17.94991c-9.89898,0 -17.95289,8.05242 -17.95289,17.94991c0,9.89928 8.05361,17.95289 17.95289,17.95289zM377.50996,235.01824c0,-5.90626 4.80508,-10.71134 10.71134,-10.71134c5.90626,0 10.71134,4.80508 10.71134,10.71134c0,5.90626 -4.80508,10.71134 -10.71134,10.71134c-5.90626,0 -10.71134,-4.80508 -10.71134,-10.71134z"
                    data-paper-data="{&quot;glyphName&quot;:&quot;O&quot;,&quot;glyphIndex&quot;:9,&quot;word&quot;:1}"
                    style="fill: rgb(255, 255, 255);"></path>
                <path
                    d="M407.13998,224.3078h11.6702v28.62507c0,0.02063 0.01674,0.03737 0.03737,0.03737h7.16561c0.02063,0 0.03737,-0.01674 0.03737,-0.03737v-28.62507h11.6705c0.02063,0 0.03737,-0.01674 0.03737,-0.03737v-7.16561c0,-0.02063 -0.01674,-0.03737 -0.03737,-0.03737h-30.58107c-0.02063,0 -0.03737,0.01674 -0.03737,0.03737v7.16561c0,0.02063 0.01644,0.03737 0.03737,0.03737z"
                    data-paper-data="{&quot;glyphName&quot;:&quot;T&quot;,&quot;glyphIndex&quot;:10,&quot;word&quot;:1}"
                    style="fill: rgb(255, 255, 255);"></path>
                <path
                    d="M460.90014,245.73287h-9.09859c-1.9563,0 -3.54753,-1.59153 -3.54753,-3.54753c0,-0.02063 -0.01674,-0.03737 -0.03737,-0.03737h-7.16292c-0.02063,0 -0.03737,0.01674 -0.03737,0.03737c0,5.94692 4.83827,10.78519 10.78519,10.78519h9.09859c5.94722,0 10.78519,-4.83827 10.78519,-10.78519c0,-5.94692 -4.83827,-10.78519 -10.78519,-10.78519h-9.09859c-1.9563,0 -3.54753,-1.59153 -3.54753,-3.54753c0,-1.956 1.59123,-3.54753 3.54753,-3.54753h9.09859c1.9563,0 3.54753,1.59153 3.54753,3.54753c0,0.02063 0.01674,0.03737 0.03737,0.03737h7.16292c0.02063,0 0.03737,-0.01674 0.03737,-0.03737c0,-5.94692 -4.83827,-10.78519 -10.78519,-10.78519h-9.09859c-5.94722,0 -10.78519,4.83827 -10.78519,10.78519c0,5.94692 4.83827,10.78519 10.78519,10.78519h9.09859c1.9563,0 3.54753,1.59153 3.54753,3.54753c0,1.956 -1.59123,3.54753 -3.54753,3.54753z"
                    data-paper-data="{&quot;glyphName&quot;:&quot;S&quot;,&quot;glyphIndex&quot;:11,&quot;lastGlyphOfWord&quot;:true,&quot;word&quot;:1}"
                    style="fill: rgb(255, 255, 255);"></path>
            </g>
            <g data-paper-data="{&quot;isContainerElementsWrapper&quot;:true}" fill-rule="evenodd">
                <path
                    d="M65,259.05977c0,1.99495 0.70544,3.698 2.11633,5.10914c1.41095,1.41114 3.11412,2.11671 5.10951,2.11671h405.54831c1.99558,0 3.69862,-0.70557 5.10914,-2.11671c1.41114,-1.41052 2.11671,-3.11356 2.11671,-5.10914v-48.11955c0,-1.99558 -0.70557,-3.69862 -2.11671,-5.10914c-1.41052,-1.41114 -3.11356,-2.11671 -5.10914,-2.11671h-405.54831c-1.99539,0 -3.69856,0.70557 -5.10951,2.11671c-1.41089,1.41114 -2.11633,3.11419 -2.11633,5.10914zM72.22585,262.13649c-0.84956,0 -1.57473,-0.30034 -2.17553,-0.90101c-0.6008,-0.60067 -0.90119,-1.32591 -0.90119,-2.17571v-48.11955c0,-0.84981 0.3004,-1.57504 0.90119,-2.17571c0.60073,-0.60067 1.32591,-0.90101 2.17553,-0.90101h405.54831c0.84981,0 1.57504,0.30034 2.17571,0.90101c0.60067,0.6013 0.90101,1.32653 0.90101,2.17571v48.11955c0,0.84918 -0.30034,1.57442 -0.90101,2.17571c-0.6013,0.60067 -1.32653,0.90101 -2.17571,0.90101z"
                    data-paper-data="{&quot;isBaseLogoContainer&quot;:true}"
                    style="fill: rgb(255, 255, 255);"></path>
            </g>
        </g>
    </g>
</svg>