<svg xmlns:mydata="http://www.w3.org/2000/svg" mydata:contrastcolor="cbafda"
    mydata:template="Default" mydata:presentation="2.5" mydata:layouttype="undefined"
    mydata:specialfontid="undefined" mydata:id1="769" mydata:id2="769" mydata:companyname="ggcasino"
    mydata:companytagline="" version="1.1" xmlns="http://www.w3.org/2000/svg"
    xmlns:xlink="http://www.w3.org/1999/xlink"
    viewBox="64.99999999999999 186.42133253999344 420 97.15733492001306">
    <g fill="#5c068c" fill-rule="none" stroke="none" stroke-width="1" stroke-linecap="butt"
        stroke-linejoin="miter" stroke-miterlimit="10" stroke-dasharray="" stroke-dashoffset="0"
        font-family="none" font-weight="none" font-size="none" text-anchor="none"
        style="mix-blend-mode: normal">
        <g
            data-paper-data="{&quot;isGlobalGroup&quot;:true,&quot;bounds&quot;:{&quot;x&quot;:64.99999999999999,&quot;y&quot;:186.42133253999344,&quot;width&quot;:420,&quot;height&quot;:97.15733492001306}}">
            <g data-paper-data="{&quot;isPrimaryText&quot;:true}" fill-rule="nonzero">
                <path
                    d="M110.87142,263.18206c0.88735,0.08384 1.77423,0.12529 2.66017,0.12529c5.54595,0 11.01324,-1.62917 15.63181,-4.69486c1.56888,-1.04325 3.04262,-2.24994 4.37977,-3.58709c0.01083,-0.01083 0.01696,-0.0259 0.01696,-0.04145v-19.956c0,-0.0325 -0.02638,-0.05888 -0.05888,-0.05888h-11.28501c-0.0325,0 -0.05888,0.02638 -0.05888,0.05888v14.51555c-6.63253,3.93986 -15.07415,2.87965 -20.53767,-2.58481c-6.57931,-6.57884 -6.57931,-17.28311 0,-23.86195c3.18721,-3.18721 7.42427,-4.94214 11.93074,-4.94214c4.50647,0 8.74352,1.75539 11.93074,4.94214c0.02214,0.02214 0.0617,0.02214 0.08384,0l7.97816,-7.97863c0.02261,-0.02308 0.02261,-0.06029 0,-0.08336c-5.33871,-5.34107 -12.43941,-8.28242 -19.99274,-8.28242c-7.55379,0 -14.65544,2.94183 -19.99698,8.28289c-5.34201,5.33918 -8.28383,12.43988 -8.28383,19.99368c0,7.55379 2.94183,14.65544 8.28336,19.99698c4.64258,4.64258 10.79329,7.53919 17.31843,8.1562z"
                    data-paper-data="{&quot;glyphName&quot;:&quot;G&quot;,&quot;glyphIndex&quot;:0,&quot;firstGlyphOfWord&quot;:true,&quot;word&quot;:1}"
                    style="fill: rgb(255, 255, 255);"></path>
                <path
                    d="M166.31281,263.18206c0.88735,0.08384 1.77423,0.12529 2.66017,0.12529c5.54595,0 11.01324,-1.62917 15.63181,-4.69486c1.56888,-1.04325 3.04262,-2.24994 4.37977,-3.58709c0.01083,-0.01083 0.01696,-0.0259 0.01696,-0.04145v-19.956c0,-0.0325 -0.02638,-0.05888 -0.05888,-0.05888h-11.28501c-0.0325,0 -0.05888,0.02638 -0.05888,0.05888v14.51555c-6.63253,3.93986 -15.07415,2.87965 -20.53767,-2.58481c-6.57931,-6.57884 -6.57931,-17.28311 0,-23.86195c3.18721,-3.18721 7.42427,-4.94214 11.93074,-4.94214c4.50647,0 8.74352,1.75539 11.93074,4.94214c0.02214,0.02214 0.0617,0.02214 0.08384,0l7.97816,-7.97863c0.02261,-0.02308 0.02261,-0.06029 0,-0.08336c-5.33871,-5.34107 -12.43941,-8.28242 -19.99274,-8.28242c-7.55379,0 -14.65544,2.94183 -19.99698,8.28289c-5.34201,5.33918 -8.28383,12.43988 -8.28383,19.99368c0,7.55379 2.94183,14.65544 8.28336,19.99698c4.64258,4.64258 10.79329,7.53919 17.31843,8.1562z"
                    data-paper-data="{&quot;glyphName&quot;:&quot;G&quot;,&quot;glyphIndex&quot;:1,&quot;word&quot;:1}"
                    style="fill: rgb(255, 255, 255);"></path>
                <path
                    d="M224.43085,263.29416c7.24153,0 14.48305,-2.75625 19.99603,-8.26923c0.02261,-0.02308 0.02261,-0.06029 0,-0.08336l-7.98146,-7.98193c-0.02214,-0.02214 -0.06076,-0.02214 -0.08384,0c-6.57837,6.57884 -17.28311,6.57884 -23.86148,0c-3.18721,-3.18674 -4.94214,-7.4238 -4.94214,-11.93074c0,-4.50694 1.75539,-8.744 4.94214,-11.93121c6.57837,-6.57884 17.28311,-6.57884 23.86148,0c0.02308,0.02214 0.0617,0.02214 0.08384,0l7.98146,-7.98193c0.02261,-0.02308 0.02261,-0.06029 0,-0.08336c-11.02596,-11.02596 -28.96611,-11.02596 -39.99207,0c-5.34107,5.34107 -8.28242,12.44224 -8.28242,19.99603c0,7.55379 2.94136,14.65497 8.28242,19.99603c5.51298,5.51345 12.7545,8.26971 19.99603,8.26971z"
                    data-paper-data="{&quot;glyphName&quot;:&quot;C&quot;,&quot;glyphIndex&quot;:2,&quot;word&quot;:1}"
                    style="fill: rgb(255, 255, 255);"></path>
                <path
                    d="M247.61713,263.30876h11.8502c0.0259,0 0.04851,-0.01649 0.05605,-0.04098l2.47272,-7.68473h19.41483l2.47272,7.68473c0.00801,0.02449 0.03014,0.04098 0.05605,0.04098h11.8502c0.01884,0 0.03627,-0.00895 0.04757,-0.02402c0.0113,-0.01507 0.01413,-0.03485 0.00895,-0.05275l-18.16104,-56.43916c-0.00801,-0.02449 -0.03014,-0.04098 -0.05605,-0.04098h-11.8502c-0.0259,0 -0.04851,0.01649 -0.05605,0.04098l-18.16198,56.43916c-0.00565,0.0179 -0.00283,0.03768 0.00848,0.05275c0.0113,0.01507 0.02873,0.02402 0.04757,0.02402zM265.66702,244.17559l6.03672,-18.76109l6.03672,18.76109z"
                    data-paper-data="{&quot;glyphName&quot;:&quot;A&quot;,&quot;glyphIndex&quot;:3,&quot;word&quot;:1}"
                    style="fill: rgb(255, 255, 255);"></path>
                <path
                    d="M328.6724,251.90648h-14.33281c-3.08171,0 -5.58834,-2.5071 -5.58834,-5.58834c0,-0.0325 -0.02638,-0.05888 -0.05888,-0.05888h-11.28359c-0.0325,0 -0.05888,0.02638 -0.05888,0.05888c0,9.36806 7.62162,16.98968 16.98968,16.98968h14.33281c9.36853,0 16.98968,-7.62162 16.98968,-16.98968c0,-9.36806 -7.62162,-16.98968 -16.98968,-16.98968h-14.33281c-3.08171,0 -5.58834,-2.5071 -5.58834,-5.58834c0,-3.08124 2.50663,-5.58834 5.58834,-5.58834h14.33281c3.08171,0 5.58834,2.5071 5.58834,5.58834c0,0.0325 0.02638,0.05888 0.05888,0.05888h11.28359c0.0325,0 0.05888,-0.02638 0.05888,-0.05888c0,-9.36806 -7.62162,-16.98968 -16.98968,-16.98968h-14.33281c-9.36853,0 -16.98968,7.62162 -16.98968,16.98968c0,9.36806 7.62162,16.98968 16.98968,16.98968h14.33281c3.08171,0 5.58834,2.5071 5.58834,5.58834c0,3.08124 -2.50663,5.58834 -5.58834,5.58834z"
                    data-paper-data="{&quot;glyphName&quot;:&quot;S&quot;,&quot;glyphIndex&quot;:4,&quot;word&quot;:1}"
                    style="fill: rgb(255, 255, 255);"></path>
                <path
                    d="M352.85017,263.30735h11.28359c0.0325,0 0.05888,-0.02638 0.05888,-0.05888v-56.43916c0,-0.0325 -0.02638,-0.05888 -0.05888,-0.05888h-11.28359c-0.0325,0 -0.05888,0.02638 -0.05888,0.05888v56.43916c0,0.0325 0.02638,0.05888 0.05888,0.05888z"
                    data-paper-data="{&quot;glyphName&quot;:&quot;I&quot;,&quot;glyphIndex&quot;:5,&quot;word&quot;:1}"
                    style="fill: rgb(255, 255, 255);"></path>
                <path
                    d="M447.85759,206.80931c0,-0.0325 -0.02638,-0.05888 -0.05888,-0.05888h-28.21723c-0.00047,0 -0.00047,0.00047 -0.00094,0.00047c-0.00047,0 -0.00047,-0.00047 -0.00094,-0.00047h-11.28501c-0.0325,0 -0.05888,0.02638 -0.05888,0.05888v37.99081l-23.51106,-38.0219c-0.01083,-0.01743 -0.02967,-0.02826 -0.04992,-0.02826h-13.26789c-0.0325,0 -0.05888,0.02638 -0.05888,0.05888v56.43916c0,0.0325 0.02638,0.05888 0.05888,0.05888h11.2803c0.0325,0 0.05888,-0.02638 0.05888,-0.05888v-37.99034l23.51624,38.02143c0.01083,0.01743 0.02967,0.02826 0.04992,0.02826h13.26789c0.0325,0 0.05888,-0.02638 0.05888,-0.05888v-28.21346c0,-0.00141 0.00188,-0.00236 0.00188,-0.00377c0,-15.52913 12.63158,-28.16306 28.15835,-28.16306c0.03203,0 0.0584,-0.02638 0.0584,-0.05888zM447.79825,251.96111c9.35141,0 16.93222,-7.58081 16.93222,-16.93222c0,-9.35141 -7.58081,-16.93222 -16.93222,-16.93222c-9.35141,0 -16.93222,7.58081 -16.93222,16.93222c0,9.35141 7.58081,16.93222 16.93222,16.93222z"
                    data-paper-data="{&quot;glyphName&quot;:&quot;&quot;,&quot;glyphIndex&quot;:6,&quot;lastGlyphOfWord&quot;:true,&quot;word&quot;:1}"
                    style="fill: rgb(255, 255, 255);"></path>
            </g>
            <g data-paper-data="{&quot;isContainerElementsWrapper&quot;:true}" fill-rule="evenodd">
                <path
                    d="M65,275.75906c0,2.15931 0.76344,4.00241 2.29032,5.52929c1.52676,1.52688 3.36976,2.29032 5.52902,2.29032h404.36106c2.15992,0 4.00301,-0.76374 5.52929,-2.29122c1.52688,-1.52628 2.29032,-3.36907 2.29032,-5.52838v-81.51813c0,-2.15992 -0.76344,-4.00331 -2.29032,-5.53019c-1.52628,-1.52628 -3.36937,-2.28941 -5.52929,-2.28941h-404.36106c-2.15901,0 -4.00187,0.76314 -5.52856,2.28941c-1.52718,1.52688 -2.29077,3.37027 -2.29077,5.53019zM72.81933,277.87772c-0.58503,0 -1.08441,-0.2069 -1.49815,-0.62069c-0.41385,-0.41379 -0.62078,-0.91312 -0.62078,-1.49797v-81.51813c0,-0.58545 0.20675,-1.08508 0.62024,-1.49887c0.41373,-0.41319 0.9133,-0.61979 1.49869,-0.61979h404.36106c0.58545,0 1.08478,0.2066 1.49797,0.61979c0.41379,0.41379 0.62069,0.91342 0.62069,1.49887v81.51813c0,0.58485 -0.2069,1.08447 -0.62069,1.49887c-0.41319,0.41319 -0.91251,0.61979 -1.49797,0.61979z"
                    data-paper-data="{&quot;isBaseLogoContainer&quot;:true}"
                    style="fill: rgb(255, 255, 255);"></path>
            </g>
        </g>
    </g>
</svg>