<svg xmlns:mydata="http://www.w3.org/2000/svg" mydata:contrastcolor="cbafda"
    mydata:template="Default" mydata:presentation="2.5" mydata:layouttype="undefined"
    mydata:specialfontid="undefined" mydata:id1="769" mydata:id2="769" mydata:companyname="fav"
    mydata:companytagline="" version="1.1" xmlns="http://www.w3.org/2000/svg"
    xmlns:xlink="http://www.w3.org/1999/xlink" viewBox="77.11959185921614 106 395.7608162815677 258">
    <g fill="rgb(10, 2, 53)" fill-rule="none" stroke="none" stroke-width="1" stroke-linecap="butt"
        stroke-linejoin="miter" stroke-miterlimit="10" stroke-dasharray="" stroke-dashoffset="0"
        font-family="none" font-weight="none" font-size="none" text-anchor="none"
        style="mix-blend-mode: normal">
        <g
            data-paper-data="{&quot;isGlobalGroup&quot;:true,&quot;bounds&quot;:{&quot;x&quot;:77.11959185921614,&quot;y&quot;:106,&quot;width&quot;:395.7608162815677,&quot;height&quot;:258}}">
            <g data-paper-data="{&quot;isPrimaryText&quot;:true}" fill-rule="nonzero">
                <path
                    d="M130.91957,310.35585h30.04854c0.08651,0 0.15673,-0.07021 0.15673,-0.15673v-59.94036h67.99853c0.08651,0 0.15673,-0.07021 0.15673,-0.15673v-30.04854c0,-0.08651 -0.07021,-0.15673 -0.15673,-0.15673h-67.99853v-29.73509h98.03579c0.08651,0 0.15673,-0.07021 0.15673,-0.15673v-30.04854c0,-0.08651 -0.07021,-0.15673 -0.15673,-0.15673h-128.24106c-0.08651,0 -0.15673,0.07021 -0.15673,0.15673v150.24272c0,0.08651 0.07021,0.15673 0.15673,0.15673z"
                    data-paper-data="{&quot;glyphName&quot;:&quot;F&quot;,&quot;glyphIndex&quot;:0,&quot;firstGlyphOfWord&quot;:true,&quot;word&quot;:1}"
                    style="fill: rgb(10, 2, 53);"></path>
                <path
                    d="M419.2065,159.86442c-0.02884,-0.04012 -0.07648,-0.06395 -0.12663,-0.06395h-31.54558c-0.06771,0 -0.12914,0.04388 -0.1492,0.10908l-32.42449,100.76782l-32.42449,-100.76782c-0.02132,-0.0652 -0.0815,-0.10908 -0.1492,-0.10908h-31.54558c-0.05015,0 -0.09779,0.02382 -0.12663,0.06395c-0.02884,0.04012 -0.03761,0.09278 -0.02257,0.14042l48.34648,150.24272c0.02132,0.0652 0.0815,0.10908 0.1492,0.10908h31.54558c0.06771,0 0.12914,-0.04388 0.1492,-0.10908l48.34648,-150.24272c0.0163,-0.04765 0.00752,-0.10031 -0.02257,-0.14043zM258.26763,259.73201h32.57369c0.05015,0 0.09779,-0.02382 0.12663,-0.06395c0.02884,-0.04012 0.03761,-0.09278 0.02257,-0.14042l-16.28685,-50.61586c-0.04137,-0.1304 -0.25703,-0.1304 -0.2984,0l-16.28685,50.61586c-0.01504,0.04765 -0.00627,0.10031 0.02257,0.14043c0.02884,0.04012 0.07648,0.06395 0.12663,0.06395zM300.50812,289.47212h-51.90727c-0.06771,0 -0.12914,0.04388 -0.1492,0.10908l-6.62006,20.5623c-0.01504,0.04765 -0.00627,0.10031 0.02257,0.14043c0.02884,0.04012 0.07648,0.06395 0.12663,0.06395h65.14739c0.05015,0 0.09779,-0.02382 0.12663,-0.06395c0.02884,-0.04012 0.03761,-0.09278 0.02257,-0.14042l-6.62006,-20.5623c-0.02006,-0.0652 -0.08149,-0.10908 -0.1492,-0.10908z"
                    data-paper-data="{&quot;glyphName&quot;:&quot;&quot;,&quot;glyphIndex&quot;:1,&quot;lastGlyphOfWord&quot;:true,&quot;word&quot;:1}"
                    style="fill: rgb(10, 2, 53);"></path>
            </g>
            <g data-paper-data="{&quot;isContainerElementsWrapper&quot;:true}" fill-rule="evenodd">
                <path
                    d="M77.11959,346.64179c0,4.79251 1.6952,8.88338 5.08561,12.2726c3.38922,3.39041 7.48009,5.08561 12.2726,5.08561h361.04439c4.79251,0 8.88338,-1.6952 12.2726,-5.08561c3.39041,-3.38922 5.08561,-7.48009 5.08561,-12.2726v-223.28358c0,-4.79488 -1.69579,-8.88634 -5.08738,-12.27438c-3.38804,-3.38922 -7.47831,-5.08383 -12.27083,-5.08383h-361.04439c-4.79251,0 -8.88338,1.6952 -12.2726,5.08561c-3.39041,3.38922 -5.08561,7.48009 -5.08561,12.2726zM94.4778,348.82311c-0.60277,0 -1.11731,-0.21257 -1.54362,-0.6377c-0.42513,-0.42632 -0.6377,-0.94086 -0.6377,-1.54362v-223.28358c0,-0.60277 0.21257,-1.11731 0.6377,-1.54362c0.42632,-0.42513 0.94086,-0.6377 1.54362,-0.6377h361.04439c0.60277,0 1.11731,0.21316 1.54362,0.63948c0.42513,0.42513 0.6377,0.93908 0.6377,1.54185v223.28358c0,0.60277 -0.21257,1.11731 -0.6377,1.54362c-0.42632,0.42513 -0.94086,0.6377 -1.54362,0.6377z"
                    data-paper-data="{&quot;isBaseLogoContainer&quot;:true}"
                    style="fill: rgb(10, 2, 53);"></path>
            </g>
        </g>
    </g>
</svg>