<svg width="80" height="40" viewBox="0 0 80 40" fill="none" xmlns="http://www.w3.org/2000/svg">
<path d="M49.2302 10.4976C49.1384 9.88845 48.6419 8.85479 47.0607 8.85479C45.9758 8.85479 45.2772 9.53765 45.2772 10.2575C45.2772 10.8854 45.6632 11.3466 46.5644 11.5128L48.3111 11.8451C50.7935 12.3066 52.0802 13.9124 52.0802 15.7766C52.0802 17.8257 50.3704 19.9112 47.263 19.9112C43.6592 19.9112 42.1146 17.5671 41.9307 15.7214L44.5967 15.0752C44.7072 16.2748 45.5161 17.3272 47.2996 17.3272C48.4398 17.3272 49.1381 16.7733 49.1381 15.9612C49.1381 15.2966 48.605 14.8166 47.7409 14.6505L45.9574 14.3182C43.751 13.8937 42.4088 12.417 42.4088 10.4789C42.4088 8.00527 44.5786 6.27051 47.0791 6.27051C50.3335 6.27051 51.5655 8.22714 51.8413 9.75902L49.2302 10.4976Z" fill="#798291"/>
<path d="M60.4265 10.4976C60.3347 9.88845 59.8382 8.85479 58.257 8.85479C57.1721 8.85479 56.4735 9.53765 56.4735 10.2575C56.4735 10.8854 56.8595 11.3466 57.7607 11.5128L59.5074 11.8451C61.9895 12.3066 63.2765 13.9124 63.2765 15.7766C63.2765 17.8257 61.5667 19.9112 58.4591 19.9112C54.8555 19.9112 53.3111 17.5671 53.127 15.7214L55.793 15.0752C55.9035 16.2748 56.7124 17.3272 58.4959 17.3272C59.6358 17.3272 60.3344 16.7733 60.3344 15.9612C60.3344 15.2966 59.8013 14.8166 58.9372 14.6505L57.1537 14.3182C54.9473 13.8937 53.6053 12.417 53.6053 10.4789C53.6053 8.00527 55.7748 6.27051 58.2754 6.27051C61.5298 6.27051 62.7618 8.22714 63.0376 9.75902L60.4265 10.4976Z" fill="#798291"/>
<path d="M65.2617 19.6388V6.55176H68.167V16.8516H73.7933V19.6388H65.2617Z" fill="#798291"/>
<path d="M43.8695 24.7481C43.841 24.5589 43.6866 24.2375 43.1953 24.2375C42.8583 24.2375 42.6413 24.4497 42.6413 24.6736C42.6413 24.8687 42.7614 25.012 43.0412 25.0637L43.5839 25.1668C44.3552 25.3102 44.7551 25.8091 44.7551 26.3884C44.7551 27.0252 44.224 27.6731 43.2582 27.6731C42.1385 27.6731 41.6586 26.9446 41.6016 26.3709L42.4299 26.1703C42.4642 26.5432 42.7155 26.8701 43.2698 26.8701C43.6238 26.8701 43.841 26.6979 43.841 26.4456C43.841 26.2392 43.6755 26.09 43.4068 26.0384L42.8527 25.9353C42.167 25.8033 41.7502 25.3446 41.7502 24.7423C41.7502 23.9738 42.4243 23.4346 43.2012 23.4346C44.2126 23.4346 44.5951 24.0425 44.6809 24.5186L43.8695 24.7481Z" fill="#798291"/>
<path d="M45.3711 27.5868V23.5205H47.9365V24.3751H46.2738V25.1494H47.7823V25.9465H46.2738V26.7266H47.942V27.5868H45.3711Z" fill="#798291"/>
<path d="M48.4609 25.5624C48.4609 24.2947 49.4207 23.4346 50.5517 23.4346C51.7686 23.4346 52.3057 24.2205 52.4372 24.8054L51.5859 25.0749C51.5231 24.794 51.266 24.3178 50.5517 24.3178C50.0093 24.3178 49.398 24.7078 49.398 25.5624C49.398 26.3253 49.9578 26.7668 50.5634 26.7668C51.266 26.7668 51.5461 26.2967 51.626 26.0039L52.4887 26.2506C52.3572 26.8129 51.8203 27.6731 50.5634 27.6731C49.398 27.6731 48.4609 26.8299 48.4609 25.5624Z" fill="#798291"/>
<path d="M53.0195 26.1185V23.5205H53.9223V26.0443C53.9223 26.5374 54.1965 26.7841 54.6249 26.7841C55.0533 26.7841 55.3276 26.5374 55.3276 26.0443V23.5205H56.2303V26.1187C56.2303 27.1395 55.5161 27.6787 54.6249 27.6787C53.7338 27.6787 53.0195 27.1395 53.0195 26.1185Z" fill="#798291"/>
<path d="M58.2971 26.0726H57.977V27.587H57.0742V23.5205H58.6796C59.4794 23.5205 59.9936 24.0712 59.9936 24.7938C59.9936 25.3444 59.6908 25.7629 59.1938 25.9407L60.0165 27.5868H59.0225L58.2971 26.0726ZM58.5085 25.2928C58.8799 25.2928 59.0797 25.0863 59.0797 24.7996C59.0797 24.4957 58.8799 24.3065 58.5085 24.3065H57.9772V25.293L58.5085 25.2928Z" fill="#798291"/>
<path d="M60.6602 27.5868V23.5205H63.2256V24.3751H61.5629V25.1494H63.0714V25.9465H61.5629V26.7266H63.2311V27.5868H60.6602Z" fill="#798291"/>
<path d="M41.8926 34.4659V30.3994H44.458V31.254H42.7953V32.0283H44.3038V32.8254H42.7953V33.6055H44.4635V34.4657L41.8926 34.4659Z" fill="#798291"/>
<path d="M47.788 34.4659L46.1198 31.7932V34.4659H45.2227V30.3994H46.3196L47.8393 32.8715V30.3994H48.742V34.4659H47.788Z" fill="#798291"/>
<path d="M49.3809 32.4423C49.3809 31.1746 50.3406 30.3145 51.4717 30.3145C52.6885 30.3145 53.2257 31.1004 53.3571 31.6852L52.5059 31.9547C52.443 31.6738 52.1859 31.1977 51.4717 31.1977C50.9292 31.1977 50.3179 31.5877 50.3179 32.4423C50.3179 33.2052 50.8778 33.6467 51.4833 33.6467C52.1859 33.6467 52.466 33.1766 52.546 32.8838L53.4086 33.1305C53.2771 33.6928 52.7402 34.5529 51.4833 34.5529C50.3179 34.5529 49.3809 33.7098 49.3809 32.4423Z" fill="#798291"/>
<path d="M55.2463 32.9518H54.9262V34.4659H54.0234V30.3994H55.6288C56.4286 30.3994 56.9428 30.9501 56.9428 31.6727C56.9428 32.2233 56.64 32.6418 56.143 32.8196L56.9658 34.4657H55.9717L55.2463 32.9518ZM55.4575 32.1717C55.8291 32.1717 56.029 31.9652 56.029 31.6785C56.029 31.3746 55.8291 31.1854 55.4575 31.1854H54.9264V32.1719L55.4575 32.1717Z" fill="#798291"/>
<path d="M57.1699 30.3994H58.2268L59.0551 31.9077L59.8948 30.3994H60.9002L59.4777 32.7684V34.4659H58.575V32.7684L57.1699 30.3994Z" fill="#798291"/>
<path d="M62.2992 33.0035V34.4659H61.3965V30.3994H62.9221C63.7446 30.3994 64.3103 30.9442 64.3103 31.7016C64.3103 32.47 63.7446 33.0035 62.9221 33.0035H62.2992ZM62.8306 32.2236C63.1734 32.2236 63.4076 32.0227 63.4076 31.7074C63.4076 31.3804 63.1734 31.1854 62.8306 31.1854H62.305V32.2236H62.8306Z" fill="#798291"/>
<path d="M66.7145 31.2654V34.4659H65.8118V31.2654H64.5664V30.3994H67.9656V31.2654H66.7145Z" fill="#798291"/>
<path d="M68.5137 34.4659V30.3994H69.4278V34.4659H68.5137Z" fill="#798291"/>
<path d="M72.1744 30.3145C73.3113 30.3145 74.2768 31.146 74.2768 32.4367C74.2768 33.7214 73.3113 34.5529 72.1744 34.5529C71.0317 34.5529 70.0664 33.7214 70.0664 32.4367C70.0662 31.146 71.0317 30.3145 72.1744 30.3145ZM72.1744 33.6583C72.7342 33.6583 73.3398 33.2797 73.3398 32.4307C73.3398 31.5819 72.7342 31.1977 72.1744 31.1977C71.6087 31.1977 71.0032 31.5822 71.0032 32.4307C71.0032 33.2797 71.6087 33.6583 72.1744 33.6583Z" fill="#798291"/>
<path d="M77.4873 34.4659L75.819 31.7932V34.4659H74.9219V30.3994H76.0189L77.5385 32.8715V30.3994H78.4412V34.4659H77.4873Z" fill="#798291"/>
<path d="M16.5638 7.64844C15.049 7.64844 13.8164 8.88583 13.8164 10.4069V14.2618H19.3113V10.4072C19.3113 8.8861 18.0787 7.64844 16.5638 7.64844Z" fill="#D3D8E1"/>
<path d="M0 0V23.3707C0 32.5548 7.41621 40 16.5646 40C25.7131 40 33.1292 32.5548 33.1292 23.3707V0H0ZM26.405 29.328H6.72423V14.2592H10.3156V10.4043C10.3156 6.94492 13.1188 4.1305 16.5646 4.1305C20.0105 4.1305 22.8137 6.94492 22.8137 10.4043V14.2592H26.405V29.328Z" fill="#D3D8E1"/>
<path d="M14.5448 25.4764C13.9695 24.8493 10.7832 21.258 10.6082 20.768C10.4956 20.4527 10.5987 19.658 11.2191 19.1283C11.8394 18.5985 12.512 18.4668 12.7285 18.6004C13.305 18.9557 15.9525 21.4432 16.1364 21.6366C16.3201 21.8299 16.4624 21.8397 16.582 21.5798C17.4695 19.6493 19.345 16.4331 20.4944 14.5994C21.3999 13.1547 23.318 10.2686 26.7079 7.73511C28.1365 6.66727 29.8101 6.36549 30.4121 6.37523C30.8859 6.3828 31.0723 6.65537 30.7248 6.90793C29.8941 7.51176 28.6588 8.76862 27.6213 10.0769C25.993 12.1301 24.5934 14.3388 23.2825 16.6035C22.0609 18.7137 19.0883 24.0121 18.2951 25.3447C17.8409 26.0643 15.4391 26.3744 14.5448 25.4764Z" fill="#798291"/>
</svg>
