<svg xmlns="http://www.w3.org/2000/svg" data-name="Layer 1" viewBox="0 0 128 128" x="0px" y="0px"
    fill="rgb(2, 222, 86)">
    <title>82 Miscellaneous 13</title>
    <path
        d="M94.18,103.56a3.3,3.3,0,0,0,1.68,2.1,3.26,3.26,0,0,0,1.47.34c2.89,0,6.12-3.57,8-6.63,2.15-3.48,3.08-6.82,2.48-8.92a3.3,3.3,0,0,0-1.68-2.11,3.26,3.26,0,0,0-1.47-.34c-2.89,0-6.12,3.57-8,6.63C94.51,98.12,93.58,101.45,94.18,103.56Zm5.88-6.82a14.6,14.6,0,0,1,3.9-4.41,13.5,13.5,0,0,1-2,4.93,14.52,14.52,0,0,1-3.9,4.4A13.5,13.5,0,0,1,100.06,96.74Z" />
    <path
        d="M61,86.79a23,23,0,0,0-46,0,22.6,22.6,0,0,0,3.21,11.6c5.78,11.31,16.2,26.7,17,27.91a3.1,3.1,0,0,0,5.53,0c.82-1.22,11.24-16.61,17-27.91A22.6,22.6,0,0,0,61,86.79ZM38,96A10,10,0,1,1,48,86,10,10,0,0,1,38,96Z" />
    <circle cx="38" cy="86" r="6" />
    <path
        d="M37.79,19.48a28.13,28.13,0,0,0-.44-9.23,59.54,59.54,0,0,1,17.9-5.61,19.4,19.4,0,0,1-.27,3c-.56,1.31-3.15,2.45-4.71,3.13l-.24.1a24.14,24.14,0,0,0-7.29,4.44c-1.68,1.65-2.15,3.28-1.42,4.85a2,2,0,0,0,.36.54A5.07,5.07,0,0,0,45.47,22c2.27,0,5.69-.93,10.62-4.28,1.29-.73,5-2.46,7.53-2.28a2,2,0,0,0,.5,0A14.65,14.65,0,0,0,74.85,5c1.58.29,3.14.64,4.68,1A17.09,17.09,0,0,1,81.69,2.5,64,64,0,0,0,34.08,7.42a19.77,19.77,0,0,1,.76,1.85v0A20.11,20.11,0,0,1,36,15.86a19.74,19.74,0,0,1-2.72,10l-.4.76A10.93,10.93,0,0,0,37.79,19.48ZM58.66,9.19a18.22,18.22,0,0,0,.59-5C60.82,4.07,62.4,4,64,4a59.68,59.68,0,0,1,6.84.4,10.68,10.68,0,0,1-7.25,7c-4.21-.14-9,2.54-9.56,2.85l-.13.08c-4.08,2.79-6.74,3.56-8.19,3.63a21.6,21.6,0,0,1,5.95-3.48l.23-.1C54.11,13.44,57.48,12,58.66,9.19Z" />
    <path
        d="M78.29,48.63H78c-3.8-.19-6-.37-7.28-.53-.75,1.27-1.5,2.52-2.22,3.68a68.19,68.19,0,0,0,9.31.84h.28c3,.16,5.35-.49,6.91-1.9a5.23,5.23,0,0,0,1.78-3.44,8,8,0,0,0-2.25-6.58c-2-2-5.23-3-8.84-3.35a17.16,17.16,0,0,1-1.26,3.9c3.14.22,5.83.85,7.27,2.29A4.11,4.11,0,0,1,82.79,47C82.69,47.66,81.63,48.8,78.29,48.63Z" />
    <path
        d="M59,57a2.64,2.64,0,0,0,2.26-1.35c.52-.79,5.92-8.92,9-14.94a13,13,0,1,0-22.42,0,174.13,174.13,0,0,0,9,14.94A2.64,2.64,0,0,0,59,57ZM54,34a5,5,0,1,1,5,5A5,5,0,0,1,54,34Z" />
    <path
        d="M76.37,18.5a26.2,26.2,0,0,0-8.88.81,17.12,17.12,0,0,1,4,3.26,25,25,0,0,1,4.6-.08h.14A5.11,5.11,0,0,0,80,21.14a17.05,17.05,0,0,1-.55-15c-1.54,2.12-3.53,5.63-2.33,8.32.37,1.15.63,3.08.15,3.74C77.15,18.41,76.84,18.5,76.37,18.5Z" />
    <path
        d="M97.26,34.65c.52-.79,5.92-8.92,9-14.94a13,13,0,1,0-22.42,0,174.13,174.13,0,0,0,9,14.94,2.57,2.57,0,0,0,4.52,0ZM90,13a5,5,0,1,1,5,5A5,5,0,0,1,90,13Z" />
    <path
        d="M93.06,65.23a11.75,11.75,0,0,1-3.27-7.4,6.37,6.37,0,0,1,0-.74A6.46,6.46,0,0,1,92,59.28c0-.14,0-.28,0-.43a19.64,19.64,0,0,1,.6-4.74,6.83,6.83,0,0,0-1.6-.86,3.71,3.71,0,0,0-3.66.29c-1.69,1.23-1.59,3.65-1.56,4.44a15.89,15.89,0,0,0,6,11.51,13,13,0,0,0,4.53,2.26c-.55-1-1.08-2-1.57-2.91A19.72,19.72,0,0,1,93.06,65.23Z" />
    <path
        d="M109.73,21.62c-.37.72-.76,1.48-1.18,2.24a60.18,60.18,0,0,1,10.56,16.47,20,20,0,0,1,5.5,3.14,64,64,0,0,0-14.11-23.41A17,17,0,0,1,109.73,21.62Z" />
    <path
        d="M11.93,93.75A59.4,59.4,0,0,1,4.47,56.62a5.79,5.79,0,0,1,5.12,0,3.18,3.18,0,0,1,1.85,2.69,46.35,46.35,0,0,0,.12,9.06,10.59,10.59,0,0,0,2.67,5.75,26.93,26.93,0,0,1,2.32-3.54,6.07,6.07,0,0,1-1-2.67,42.52,42.52,0,0,1-.09-8.39,2,2,0,0,0,0-.23,7.13,7.13,0,0,0-4-6.22,9.75,9.75,0,0,0-6.25-.85A59.82,59.82,0,0,1,8.28,41.79L6.89,39.65h0L6,38.31H6l-.38-.6A64,64,0,0,0,20.89,111.3c-2.22-3.69-4.41-7.51-6.19-11A26.64,26.64,0,0,1,11.93,93.75Z" />
    <path
        d="M76.5,122.68a2,2,0,0,0-.24-.23c-7.61-6.19-16.91-7-24.15-6.26-1,1.57-1.93,3.07-2.82,4.44,6-1,14.44-1.25,21.62,3a59.72,59.72,0,0,1-22.47-1.65c-.87,1.33-1.64,2.52-2.3,3.51a64,64,0,0,0,81.32-53.23C125.33,76,122.85,80,120.91,83A60.22,60.22,0,0,1,76.5,122.68Z" />
    <path
        d="M41.47,60.23A15.14,15.14,0,0,1,49,50.94c-.68-1.1-1.37-2.27-2.06-3.45A18.94,18.94,0,0,0,37.41,60H38A27.26,27.26,0,0,1,41.47,60.23Z" />
    <path
        d="M96.74,74c-.45.75-.91,1.53-1.38,2.22-.59.87-1.26,1.7-2,2.59a24.65,24.65,0,0,0-4.23,6.78A25.26,25.26,0,0,0,88,92.33a28.2,28.2,0,0,1-.63,4.62A10.47,10.47,0,0,1,85,100.82a34,34,0,0,1-6.53,5.75c-1.57,1.13-3.75,2.16-5.19.68A14.66,14.66,0,0,1,69.84,100a23.12,23.12,0,0,1-.36-4,21.08,21.08,0,0,0-.79-6,13.83,13.83,0,0,0-.92-2A4.48,4.48,0,0,1,67,85.58c.35-3.5-.52-6.22-2.58-8.09a8.12,8.12,0,0,0-1.53-1.08,26.33,26.33,0,0,1,1.8,14.34c.07.17.15.33.2.49a17.83,17.83,0,0,1,.59,4.86,26.46,26.46,0,0,0,.45,4.74A18.53,18.53,0,0,0,70.44,110,6.21,6.21,0,0,0,75,112a10.2,10.2,0,0,0,5.84-2.17,37.56,37.56,0,0,0,7.29-6.48,14.05,14.05,0,0,0,3.09-5.41A31.71,31.71,0,0,0,92,92.65a21.88,21.88,0,0,1,1-5.7,21.32,21.32,0,0,1,3.61-5.67c.71-.9,1.44-1.83,2.12-2.81.28-.41.55-.84.82-1.27-.78-1.28-1.56-2.59-2.32-3.9Z" />
    <path
        d="M0,15.86a15.8,15.8,0,0,0,2.22,8.06A215.11,215.11,0,0,0,13.6,42.56a2.72,2.72,0,0,0,4.8,0A215.78,215.78,0,0,0,29.78,23.92,15.84,15.84,0,0,0,16,0,16,16,0,0,0,0,15.86ZM16,9a7,7,0,1,1-7,7A7,7,0,0,1,16,9Z" />
    <circle cx="16" cy="16" r="3" />
    <circle cx="112" cy="59" r="3" />
    <path
        d="M112,43A15.84,15.84,0,0,0,98.22,66.92,215.11,215.11,0,0,0,109.6,85.56a2.72,2.72,0,0,0,4.8,0,215.78,215.78,0,0,0,11.38-18.64A15.84,15.84,0,0,0,112,43Zm0,23a7,7,0,1,1,7-7A7,7,0,0,1,112,66Z" />
</svg>