<svg width="72" height="44" viewBox="0 0 72 44" fill="none" xmlns="http://www.w3.org/2000/svg">
<g clip-path="url(#clip0_12_404)">
<path d="M64.0137 0.0874023H7.77877C7.54456 0.0874023 7.30993 0.0874023 7.07615 0.0887681C6.87851 0.0901753 6.68135 0.0923688 6.48418 0.0977492C6.05417 0.109379 5.62047 0.134749 5.19584 0.211068C4.76442 0.28871 4.36296 0.415356 3.97131 0.61476C3.58628 0.810562 3.23378 1.06667 2.92831 1.37227C2.6227 1.67787 2.3666 2.02979 2.17083 2.41523C1.97139 2.80688 1.84467 3.20846 1.76756 3.64021C1.69083 4.06497 1.6653 4.49859 1.6537 4.92814C1.6484 5.12532 1.64614 5.32248 1.64485 5.51961C1.64348 5.7539 1.64393 5.98804 1.64393 6.22274V37.8086C1.64393 38.0434 1.64348 38.277 1.64485 38.5118C1.64614 38.7089 1.6484 38.9061 1.6537 39.1033C1.6653 39.5324 1.69083 39.966 1.76756 40.3908C1.84467 40.8226 1.97139 41.224 2.17083 41.6157C2.3666 42.0011 2.6227 42.3536 2.92831 42.6587C3.23378 42.9648 3.58628 43.2208 3.97131 43.4161C4.36296 43.6161 4.76442 43.7427 5.19584 43.8204C5.62047 43.8962 6.05417 43.922 6.48418 43.9336C6.68135 43.9382 6.87851 43.9408 7.07615 43.9417C7.30993 43.9435 7.54456 43.9435 7.77877 43.9435H64.0137C64.2475 43.9435 64.4821 43.9435 64.7159 43.9417C64.9132 43.9408 65.1102 43.9382 65.3083 43.9336C65.7374 43.922 66.171 43.8962 66.5967 43.8204C67.0276 43.7427 67.4291 43.6161 67.8208 43.4161C68.2062 43.2208 68.5577 42.9648 68.8638 42.6587C69.1688 42.3536 69.425 42.0011 69.6212 41.6157C69.8212 41.224 69.9478 40.8226 70.0244 40.3908C70.1013 39.966 70.1261 39.5324 70.1378 39.1033C70.1433 38.9061 70.1459 38.7089 70.1467 38.5118C70.1486 38.277 70.1486 38.0434 70.1486 37.8086V6.22274C70.1486 5.98804 70.1486 5.7539 70.1467 5.51961C70.1459 5.32248 70.1433 5.12532 70.1378 4.92814C70.1261 4.49859 70.1013 4.06497 70.0244 3.64021C69.9478 3.20846 69.8212 2.80688 69.6212 2.41523C69.425 2.02979 69.1688 1.67787 68.8638 1.37227C68.5577 1.06667 68.2062 0.810562 67.8208 0.61476C67.4291 0.415356 67.0276 0.28871 66.5967 0.211068C66.171 0.134749 65.7374 0.109379 65.3083 0.0977492C65.1102 0.0923688 64.9132 0.0901753 64.7159 0.0887681C64.4821 0.0874023 64.2475 0.0874023 64.0137 0.0874023Z" fill="black"/>
<path d="M64.0134 1.54883L64.7053 1.55016C64.8926 1.55147 65.0801 1.5535 65.2685 1.55864C65.5962 1.56749 65.9797 1.58526 66.3371 1.64931C66.6478 1.70527 66.9083 1.79037 67.1585 1.91767C67.4053 2.04311 67.6316 2.20751 67.829 2.40472C68.0272 2.60325 68.1918 2.82981 68.319 3.07942C68.4455 3.32754 68.5301 3.58686 68.5857 3.89983C68.6497 4.25337 68.6674 4.63785 68.6763 4.96767C68.6814 5.15383 68.6838 5.33998 68.6848 5.53058C68.6866 5.76107 68.6864 5.99143 68.6864 6.22237V37.8083C68.6864 38.0392 68.6866 38.2692 68.6847 38.5045C68.6838 38.6906 68.6814 38.8769 68.6763 39.0633C68.6674 39.3926 68.6497 39.7769 68.585 40.1346C68.5301 40.4434 68.4456 40.7027 68.3183 40.9521C68.1916 41.201 68.0272 41.4274 67.8299 41.6246C67.6313 41.8233 67.4058 41.9871 67.156 42.1137C66.9078 42.2405 66.6477 42.3255 66.34 42.3809C65.9753 42.4458 65.5758 42.4638 65.275 42.4719C65.0857 42.4761 64.8973 42.4787 64.7043 42.4797C64.4743 42.4814 64.2435 42.4813 64.0134 42.4813H7.77847C7.77541 42.4813 7.77242 42.4813 7.76933 42.4813C7.54195 42.4813 7.3141 42.4813 7.08258 42.4795C6.89382 42.4787 6.70546 42.4761 6.52336 42.472C6.2156 42.4638 5.81584 42.4458 5.45416 42.3813C5.14388 42.3255 4.88376 42.2405 4.63228 42.1121C4.38484 41.9867 4.15957 41.8229 3.96086 41.6239C3.7637 41.427 3.59984 41.2014 3.47315 40.9521C3.34634 40.7029 3.26151 40.4428 3.20571 40.1305C3.14123 39.7735 3.12351 39.3907 3.11466 39.0636C3.10961 38.8763 3.1075 38.6891 3.1063 38.5029L3.10539 37.9533L3.10543 37.8083V6.22237L3.10539 6.07726L3.10626 5.52884C3.1075 5.34156 3.10961 5.15432 3.11466 4.96722C3.12351 4.63979 3.14123 4.25689 3.20625 3.8969C3.26155 3.58736 3.34634 3.32719 3.47381 3.07684C3.59951 2.8294 3.76366 2.6035 3.96186 2.40534C4.15928 2.20783 4.38529 2.04366 4.63431 1.91701C4.8831 1.79032 5.14371 1.70527 5.454 1.64944C5.81149 1.5852 6.19519 1.56749 6.52381 1.5586C6.71113 1.5535 6.89845 1.55147 7.08436 1.5502L7.77847 1.54883H64.0134Z" fill="white"/>
<path d="M20.3469 14.8397C20.9335 14.106 21.3314 13.1209 21.2265 12.1143C20.3678 12.1569 19.32 12.6807 18.7134 13.415C18.1687 14.0437 17.6866 15.07 17.8123 16.0345C18.7761 16.1181 19.7391 15.5527 20.3469 14.8397Z" fill="black"/>
<path d="M21.2148 16.2229C19.8151 16.1395 18.625 17.0173 17.9564 17.0173C17.2876 17.0173 16.264 16.2649 15.1569 16.2852C13.7159 16.3063 12.3788 17.1211 11.6475 18.4169C10.1435 21.0093 11.2506 24.8546 12.7132 26.966C13.4235 28.0104 14.2795 29.1606 15.4074 29.1193C16.4731 29.0775 16.8909 28.4293 18.1863 28.4293C19.4807 28.4293 19.8569 29.1193 20.9851 29.0983C22.155 29.0775 22.8863 28.0533 23.5966 27.0078C24.4114 25.8171 24.7449 24.6674 24.7659 24.6042C24.7449 24.5833 22.5101 23.726 22.4894 21.1552C22.4683 19.0027 24.244 17.9788 24.3276 17.9152C23.3248 16.4321 21.7581 16.2649 21.2148 16.2229Z" fill="black"/>
<path d="M33.4027 13.3101C36.4451 13.3101 38.5636 15.4071 38.5636 18.4605C38.5636 21.5247 36.4015 23.6326 33.3263 23.6326H29.9579V28.9895H27.5242V13.3101H33.4027ZM29.9579 21.5897H32.7505C34.8694 21.5897 36.0753 20.4491 36.0753 18.4713C36.0753 16.4939 34.8694 15.3638 32.7613 15.3638H29.9579V21.5897Z" fill="black"/>
<path d="M39.1995 25.7406C39.1995 23.7411 40.7316 22.5134 43.4483 22.3612L46.5775 22.1765V21.2965C46.5775 20.0251 45.719 19.2646 44.285 19.2646C42.9264 19.2646 42.0788 19.9164 41.8727 20.9378H39.656C39.7863 18.8733 41.5465 17.3521 44.3718 17.3521C47.1425 17.3521 48.9135 18.8189 48.9135 21.1116V28.9894H46.6642V27.1096H46.6101C45.9474 28.3809 44.5021 29.185 43.0026 29.185C40.7643 29.185 39.1995 27.7941 39.1995 25.7406ZM46.5775 24.7084V23.8066L43.7631 23.9802C42.3614 24.0782 41.5683 24.6974 41.5683 25.6754C41.5683 26.6749 42.394 27.327 43.6545 27.327C45.2952 27.327 46.5775 26.1969 46.5775 24.7084Z" fill="black"/>
<path d="M51.0367 33.1947V31.2931C51.2102 31.3365 51.6013 31.3365 51.797 31.3365C52.8836 31.3365 53.4704 30.8802 53.8288 29.7067C53.8288 29.6849 54.0355 29.0113 54.0355 29.0004L49.9066 17.5586H52.4489L55.3395 26.8599H55.3827L58.2734 17.5586H60.7507L56.4692 29.5871C55.4916 32.358 54.3615 33.2489 51.9929 33.2489C51.797 33.2489 51.2102 33.2271 51.0367 33.1947Z" fill="black"/>
</g>
<defs>
<clipPath id="clip0_12_404">
<rect width="71.2662" height="43.8561" fill="white" transform="translate(0.273438 0.0874023)"/>
</clipPath>
</defs>
</svg>
