<svg width="133" height="21" viewBox="0 0 133 21" fill="none" xmlns="http://www.w3.org/2000/svg">
    <mask id="mask0_11058_4327" style="mask-type:luminance" maskUnits="userSpaceOnUse" x="2" y="2"
        width="129" height="17">
        <path d="M130.578 2H2V19H130.578V2Z" fill="white" />
    </mask>
    <g mask="url(#mask0_11058_4327)">
        <path
            d="M2 10.8287C2 4.95856 4.5602 2 8.5989 2C11.3939 2 13.5071 3.36188 14.0934 6.43865L14.1873 6.93256L11.7922 7.44913L11.6983 7.00381C11.2514 4.93751 10.1016 4.13917 8.5519 4.13917C6.3674 4.13917 4.6298 6.04191 4.6298 10.6668C4.6298 15.0342 6.2038 16.8657 8.411 16.8657C9.985 16.8657 11.8165 16.0447 11.8165 13.1557V12.6635H8.3641V10.6198H14.2116V18.7215H12.121L11.9801 16.7248C11.2044 18.3442 9.679 19.0032 7.8945 19.0032C4.3254 19 2 16.1596 2 10.8287Z"
            fill="white" />
        <path
            d="M23.2268 17.5912C22.4981 18.3653 21.5362 18.9774 19.9865 19.0001C17.7793 19.0001 16.3462 17.52 16.3462 15.6189C16.3462 13.5526 18.0611 12.5421 19.5639 12.1194L23.2042 11.0863V10.6636C23.2042 9.3487 22.3815 8.69125 21.0909 8.69125C19.8926 8.69125 18.9307 9.44263 18.508 10.2879L18.4368 10.4288L16.581 9.44263L16.6992 9.20782C17.2158 8.15038 18.6489 6.69458 21.3014 6.69458C23.9539 6.69458 25.6462 8.03379 25.6462 10.4515V16.6277C25.6462 17.2139 25.6704 17.9896 25.787 18.5062L25.834 18.7183H23.392L23.3677 18.6001C23.2965 18.2714 23.2495 17.9426 23.2268 17.5912ZM20.6197 17.1443C21.6998 17.1443 22.6633 16.5095 23.2025 15.8294V12.8708L20.6666 13.6465C19.7047 13.9509 18.8578 14.4448 18.8578 15.4553C18.8578 16.4658 19.5396 17.1459 20.6197 17.1459V17.1443Z"
            fill="white" />
        <path
            d="M39.8263 8.80931C38.8644 8.80931 37.8539 9.46676 37.2904 10.0303V18.7181H34.8484V10.6165C34.8484 9.41818 34.2379 8.80769 33.0638 8.80769C32.1019 8.80769 31.0915 9.46514 30.5279 10.0287V18.7165H28.0859V6.97781H30.4113V8.27006C31.3036 7.33083 32.5716 6.69604 33.8865 6.69604C35.5301 6.69604 36.5163 7.44744 36.9859 8.48059C37.8782 7.42315 39.2401 6.69604 40.6489 6.69604C43.0682 6.69604 44.0544 8.31702 44.0544 10.0773V18.7181H41.6124V10.6165C41.6124 9.41818 41.0019 8.80769 39.8279 8.80769L39.8263 8.80931Z"
            fill="white" />
        <path
            d="M49.0555 17.6381L48.8207 18.7182H46.7544V2.28174H49.1964V7.94139C49.9008 7.14304 50.9809 6.6961 52.108 6.6961C54.7848 6.6961 56.5936 8.69277 56.5936 12.6845C56.5936 16.6762 54.6909 19.0016 52.0141 19.0016C50.8157 19.0016 49.713 18.5077 49.0555 17.6397V17.6381ZM51.5445 17.0276C52.9306 17.0276 54.1047 15.7596 54.1047 12.7541C54.1047 9.74859 52.8837 8.69115 51.4975 8.69115C50.5583 8.69115 49.7826 9.16076 49.1964 9.77126V15.9005C49.8069 16.5353 50.6052 17.0276 51.5445 17.0276Z"
            fill="white" />
        <path d="M58.6113 2.28174H61.0533V18.7182H58.6113V2.28174Z" fill="white" />
        <path
            d="M63.2129 13.0132C63.2129 9.30321 65.0687 6.69604 68.309 6.69604C70.5874 6.69604 72.9808 8.05792 72.9808 12.2844V13.3872H65.6079V13.5281C65.6079 15.8065 66.8062 17.0745 68.4013 17.0745C69.4345 17.0745 70.3041 16.6518 70.8903 15.5944L71.0311 15.3353L72.9566 16.1579L72.84 16.3927C71.9704 18.1303 70.4206 18.9999 68.3317 18.9999C65.3731 18.9999 63.2129 16.9093 63.2129 13.0115V13.0132ZM70.6797 11.7679V11.6027C70.6797 9.46515 69.5527 8.6668 68.309 8.6668C67.0653 8.6668 65.8427 9.60603 65.6322 11.7662H70.6814L70.6797 11.7679Z"
            fill="white" />
        <path
            d="M79.4621 2.28174H83.0085L87.658 18.7182H85.0505L83.8991 14.3978H78.4516L77.3003 18.7182H74.834L79.4621 2.28174ZM83.3372 12.3784L81.177 4.30108L79.0168 12.3784H83.3372Z"
            fill="#EF681C" />
        <path
            d="M87.045 6.97778H89.487L91.413 15.3612L93.55 6.97778H95.851L97.942 15.3612L99.939 6.97778H102.17L99.14 18.7181H96.721L94.608 10.359L92.47 18.7181H90.075L87.045 6.97778Z"
            fill="#EF681C" />
        <path
            d="M109.376 17.5912C108.648 18.3653 107.686 18.9774 106.136 19.0001C103.929 19.0001 102.496 17.52 102.496 15.6189C102.496 13.5526 104.209 12.5421 105.713 12.1194L109.354 11.0863V10.6636C109.354 9.3487 108.531 8.69125 107.24 8.69125C106.044 8.69125 105.08 9.44263 104.657 10.2879L104.588 10.4288L102.732 9.44263L102.85 9.20782C103.367 8.15038 104.8 6.69458 107.452 6.69458C110.105 6.69458 111.797 8.03379 111.797 10.4515V16.6277C111.797 17.2139 111.821 17.9896 111.938 18.5062L111.985 18.7183H109.543L109.519 18.6001C109.449 18.2714 109.402 17.9426 109.378 17.5912H109.376ZM106.771 17.1443C107.851 17.1443 108.814 16.5095 109.354 15.8294V12.8708L106.818 13.6465C105.854 13.9509 105.009 14.4448 105.009 15.4553C105.009 16.4658 105.691 17.1459 106.771 17.1459V17.1443Z"
            fill="#EF681C" />
        <path
            d="M114.167 6.97792H116.445V9.1851C117.995 7.37628 119.381 6.83703 120.555 6.81274V9.09118C118.911 9.09118 117.619 10.0077 116.61 10.9227V18.7182H114.168L114.167 6.97792Z"
            fill="#EF681C" />
        <path
            d="M120.811 13.0132C120.811 9.30321 122.666 6.69604 125.907 6.69604C128.185 6.69604 130.58 8.05792 130.58 12.2844V13.3872H123.207V13.5281C123.207 15.8065 124.406 17.0745 126.002 17.0745C127.035 17.0745 127.905 16.6518 128.491 15.5944L128.632 15.3353L130.557 16.1579L130.441 16.3927C129.571 18.1303 128.022 18.9999 125.933 18.9999C122.974 18.9999 120.814 16.9093 120.814 13.0115L120.811 13.0132ZM128.277 11.7679V11.6027C128.277 9.46515 127.15 8.6668 125.905 8.6668C124.66 8.6668 123.439 9.60603 123.228 11.7662H128.277V11.7679Z"
            fill="#EF681C" />
    </g>
</svg>