<svg xmlns="http://www.w3.org/2000/svg" data-name="Layer 1" viewBox="0 0 128 128" x="0px" y="0px"
    fill="rgb(2, 222, 86)">
    <title>Miscellaneous 217 solid</title>
    <path
        d="M24.666,69.47516A7.91425,7.91425,0,0,0,22,69a8,8,0,0,0,0,16,7.91461,7.91461,0,0,0,2.666-.47516A11.95256,11.95256,0,0,1,24.666,69.47516Z" />
    <circle cx="34" cy="77" r="8" />
    <path
        d="M0,52v48a6.00476,6.00476,0,0,0,6,6H122a6.00476,6.00476,0,0,0,6-6V52ZM70,70H80a2,2,0,0,1,0,4H70a2,2,0,0,1,0-4ZM34,89a11.96863,11.96863,0,0,1-6-1.62,12,12,0,1,1,0-20.76A11.9955,11.9955,0,1,1,34,89ZM50,72a2.00587,2.00587,0,0,1,2-2H62a2,2,0,0,1,0,4H52A2.00591,2.00591,0,0,1,50,72ZM84,86H62a2,2,0,0,1,0-4H84a2,2,0,0,1,0,4Zm2-14a2.00587,2.00587,0,0,1,2-2H98a2,2,0,0,1,0,4H88A2.00591,2.00591,0,0,1,86,72Zm24,14H92a2,2,0,0,1,0-4h18a2,2,0,0,1,0,4Zm6-12H106a2,2,0,0,1,0-4h10a2,2,0,0,1,0,4Zm6-52H6a6.00476,6.00476,0,0,0-6,6V38H128V28A6.00476,6.00476,0,0,0,122,22ZM102,34a2,2,0,1,1,2-2A2.00591,2.00591,0,0,1,102,34Zm8,0a2,2,0,1,1,2-2A2.00591,2.00591,0,0,1,110,34Zm8,0a2,2,0,1,1,2-2A2.00591,2.00591,0,0,1,118,34ZM0,42v6H128V42Z" />
</svg>