<svg xmlns="http://www.w3.org/2000/svg" data-name="Layer 1" viewBox="0 0 80 80" x="0px" y="0px"
    fill="rgb(2, 222, 86)">
    <title>hobbies</title>
    <path
        d="M38.59,29.47c0-.47,0-.88,0-1.29a1,1,0,0,1,.75-1,4.58,4.58,0,0,1,.47-.06v-.46A12.85,12.85,0,0,1,39.94,24a5.93,5.93,0,0,1,.21-.83,4.12,4.12,0,0,1,3.55-2.94,10.06,10.06,0,0,1,3.33.12c1.3.21,2.59.48,3.89.69.63.09,1.27.09,1.9.13a1.22,1.22,0,0,0,.27,0,1.57,1.57,0,0,0,1.61-1.44,10.13,10.13,0,0,0,.14-1.35,1.37,1.37,0,0,1,2-1.16,1.26,1.26,0,0,1,.78,1.08A6.41,6.41,0,0,1,57,21.56,4.18,4.18,0,0,1,53.6,23.9a11.59,11.59,0,0,1-3.67-.19c-1.33-.22-2.65-.48-4-.69a5.65,5.65,0,0,0-2.05,0,1.34,1.34,0,0,0-1.11,1,3.36,3.36,0,0,0-.18.88c0,.72,0,1.44,0,2.18l.27.05a1,1,0,0,1,.9,1c0,.35,0,.7,0,1.05,0,.07,0,.15,0,.28H57.05a14.42,14.42,0,0,1,14.29,12.4A14.44,14.44,0,0,1,45.77,53a3.07,3.07,0,0,0-2.53-1.22H39.13A3.08,3.08,0,0,0,36.6,53a14.05,14.05,0,0,1-8.72,5.19A14.46,14.46,0,0,1,22,29.84a13.82,13.82,0,0,1,3.39-.37h13.2ZM23.39,42H19.44c-.36,0-.56.17-.57.49,0,.95,0,1.89,0,2.84a.47.47,0,0,0,.48.5h4v3.83c0,.54.18.71.73.72h2.37c.6,0,.76-.16.76-.76,0-1.11,0-2.23,0-3.34v-.45H31.1c.52,0,.68-.17.68-.67,0-.82,0-1.64,0-2.45,0-.52-.22-.74-.71-.73-1.13,0-2.26,0-3.38,0h-.44v-.48c0-1.11,0-2.23,0-3.34,0-.55-.17-.73-.71-.73H24.13c-.57,0-.74.17-.74.74V42Zm39.18,4.52A2.61,2.61,0,1,0,60,43.88,2.6,2.6,0,0,0,62.57,46.52Zm-10.91,0A2.61,2.61,0,1,0,49,44,2.59,2.59,0,0,0,51.66,46.52Zm8.05-8.09a2.6,2.6,0,0,0-2.62-2.61,2.62,2.62,0,0,0,0,5.23A2.6,2.6,0,0,0,59.71,38.43ZM57.1,46.79a2.62,2.62,0,0,0-2.61,2.62A2.66,2.66,0,0,0,57.13,52a2.61,2.61,0,0,0,2.58-2.62A2.59,2.59,0,0,0,57.1,46.79Z" />
</svg>