<svg xmlns="http://www.w3.org/2000/svg" fill="#6b7983" viewBox="0 0 512 512">
    <path
        d="M512 260c0 11.047-8.953 20-20 20h-30v30c0 11.047-8.953 20-20 20s-20-8.953-20-20v-30h-30c-11.047 0-20-8.953-20-20s8.953-20 20-20h30v-30c0-11.047 8.953-20 20-20s20 8.953 20 20v30h30c11.047 0 20 8.953 20 20zm-49.45 111.988c-9.136-6.21-21.573-3.84-27.784 5.293C394.44 436.59 327.613 472 256 472c-119.102 0-216-96.898-216-216S136.898 40 256 40c73.14 0 140.754 36.586 180.867 97.871 6.051 9.242 18.445 11.828 27.688 5.777 9.242-6.046 11.832-18.445 5.78-27.687C422.806 43.35 342.68 0 256 0 187.621 0 123.332 26.629 74.98 74.98 26.63 123.332 0 187.621 0 256s26.629 132.668 74.98 181.02C123.332 485.37 187.621 512 256 512c84.871 0 164.066-41.953 211.844-112.227 6.21-9.136 3.84-21.574-5.293-27.785zM149 351c11.047 0 20-8.953 20-20V182a19.998 19.998 0 0 0-10.937-17.828 19.995 19.995 0 0 0-20.852 1.672l-37 27c-8.922 6.511-10.879 19.023-4.367 27.945 6.511 8.922 19.023 10.875 27.945 4.367l5.211-3.804V331c0 11.047 8.953 20 20 20zm60-60c0-16.004 6.313-30.555 16.563-41.324C218.324 240.363 214 228.68 214 216c0-30.328 24.672-55 55-55s55 24.672 55 55c0 12.68-4.324 24.363-11.562 33.676C322.688 260.446 329 274.996 329 291c0 33.086-26.914 60-60 60s-60-26.914-60-60zm80 0c0-11.027-8.973-20-20-20s-20 8.973-20 20 8.973 20 20 20 20-8.973 20-20zm-35-75c0 8.27 6.73 15 15 15s15-6.73 15-15-6.73-15-15-15-15 6.73-15 15zm0 0" />
</svg>